<?xml version="1.0" ?><!DOCTYPE svg  PUBLIC '-//W3C//DTD SVG 1.1//EN'  'http://www.w3.org/Graphics/SVG/1.1/DTD/svg11.dtd'><svg height="482px" style="enable-background:new -0.1 -0.7 482 482;" version="1.1" viewBox="-0.1 -0.7 482 482" width="482px" xml:space="preserve" xmlns="http://www.w3.org/2000/svg" xmlns:xlink="http://www.w3.org/1999/xlink"><style type="text/css">
<![CDATA[
	.st0{fill:#E6E7E8;}
	.st1{fill:#ED1849;}
	.st2{fill:#EF3E42;}
	.st3{fill:#54B948;}
	.st4{fill:#F2E18C;}
	.st5{fill:#F3EA00;}
	.st6{fill:#F78F1E;}
	.st7{fill:#C6006F;}
	.st8{fill:#FDBB30;}
	.st9{fill:#FFDD00;}
	.st10{fill:#FFEE00;}
	.st11{fill:none;}
	.st12{fill:#9C0058;}
	.st13{fill:#9C8DC3;}
	.st14{fill:#00853F;}
	.st15{fill:#D5E04D;}
	.st16{fill:#711471;}
	.st17{fill:#A0CE67;}
	.st18{fill:#785200;}
]]>
</style><defs/><path class="st2" d="M156.9,261c0-41.6,36.9-75.4,82.4-75.4c45.5,0,82.4,33.7,82.4,75.4c0,41.6-36.9,75.4-82.4,75.4  C193.8,336.4,156.9,302.6,156.9,261L156.9,261z"/><path class="st14" d="M297.8,119.7c5.5,15.1,2.1,32.6-10,44.7c-12.1,12.1-29.6,15.4-44.7,10c-5.5-15.1-2.1-32.6,10-44.7  C265.2,117.6,282.7,114.3,297.8,119.7L297.8,119.7z"/><path class="st3" d="M209.5,148.3c-2.7,7.5-1.1,16.3,5,22.4c6,6,14.8,7.7,22.4,5c2.7-7.5,1.1-16.3-5-22.4  C225.8,147.2,217,145.6,209.5,148.3L209.5,148.3z"/><rect class="st11" height="481.2" id="_x3C_Slice_x3E__31_" width="481.2" y="0"/></svg>